<?xml version="1.0" encoding="UTF-8"?>
<svg width="512px" height="512px" viewBox="0 0 512 512" version="1.1" xmlns="http://www.w3.org/2000/svg" xmlns:xlink="http://www.w3.org/1999/xlink">
    <!-- Generator: Sketch 64 (93537) - https://sketch.com -->
    <title>Video</title>
    <desc>Created with Sketch.</desc>
    <defs>
        <linearGradient x1="6.40016693%" y1="29.2869349%" x2="91.3802644%" y2="72.9317107%" id="linearGradient-1">
            <stop stop-color="#8C9EFF" offset="0%"></stop>
            <stop stop-color="#F8BBD0" offset="100%"></stop>
        </linearGradient>
    </defs>
    <g id="Video" stroke="none" stroke-width="1" fill="none" fill-rule="evenodd">
        <path d="M399.710145,94 L111.614224,94 C92.7455865,94 75.3462189,101.00986 62.0646725,112.698651 C48.783126,124.387441 39.6194008,140.755162 37.2220477,159.470882 C33.0747377,191.848216 31,223.929175 31,255.713896 C31,285.995255 32.8831375,315.917742 36.6506961,345.481273 C39.0371732,364.207642 48.1978345,380.587323 61.4813319,392.285413 C74.7648294,403.983502 92.171163,411 111.048985,411 L399.802514,411 C418.376817,411 435.55175,404.201376 448.768082,392.809974 C461.984415,381.418572 471.242148,365.434393 473.982051,347.063283 C478.660281,315.695656 481,284.327634 481,252.959128 C481,221.38246 478.629139,189.707537 473.88931,157.934221 C471.148859,139.563676 461.89098,123.58012 448.674757,112.189201 C435.458534,100.798283 418.283969,93.9999999 399.710145,94 Z" id="Rectangle" stroke="url(#linearGradient-1)" stroke-width="20" fill="#E91E63"></path>
        <g id="logo" transform="translate(168.000000, 155.000000)" fill="#FFFFFF" fill-rule="nonzero">
            <path d="M0,0 L0,162.746694 C0,181.111988 15.0789198,196 33.67971,196 C37.7583571,196 41.8030874,195.268537 45.6169526,193.841227 L154.538445,153.078188 C171.699779,146.65569 180.338564,127.713349 173.83371,110.769287 C171.551537,104.824606 167.569309,99.6625872 162.371176,95.9108184 L106.722011,55.7458578 L88.1712441,80.8015356 L143.820409,120.966496 C144.101389,121.169294 144.316645,121.448322 144.440005,121.769657 C144.791619,122.685552 144.324658,123.709462 143.397018,124.056624 L34.4755262,164.819662 C34.2212685,164.914816 33.9516198,164.963581 33.67971,164.963581 C32.4396573,164.963581 31.434396,163.971047 31.434396,162.746694 L31.434396,0 L0,0 Z" id="Path-4"></path>
        </g>
    </g>
</svg>